<svg width="2066" height="1344" viewBox="0 0 2066 1344" fill="none" xmlns="http://www.w3.org/2000/svg">
<rect x="146" y="175" width="1920" height="1080" rx="30" fill="#DEDEDE"/>
<g filter="url(#filter0_f_8988_7029)">
<ellipse cx="666" cy="522.5" rx="172" ry="172.5" fill="#009042"/>
</g>
<g filter="url(#filter1_f_8988_7029)">
<ellipse cx="472" cy="871.5" rx="172" ry="172.5" fill="#FFDD55"/>
</g>
<g filter="url(#filter2_f_8988_7029)">
<ellipse cx="1303" cy="472.5" rx="172" ry="172.5" fill="#289EED"/>
</g>
<path d="M2036 175H176C159.431 175 146 188.431 146 205V1225C146 1241.57 159.431 1255 176 1255H2036C2052.57 1255 2066 1241.57 2066 1225V205C2066 188.431 2052.57 175 2036 175Z" fill="white" fill-opacity="0.2"/>
<path d="M1944 265H661C641.118 265 625 281.118 625 301V314C625 333.882 641.118 350 661 350H1944C1963.88 350 1980 333.882 1980 314V301C1980 281.118 1963.88 265 1944 265Z" fill="white"/>
<path d="M1944 411H661C641.118 411 625 427.118 625 447V1130C625 1149.88 641.118 1166 661 1166H1944C1963.88 1166 1980 1149.88 1980 1130V447C1980 427.118 1963.88 411 1944 411Z" fill="white"/>
<path d="M221 428.5C221 418.835 213.165 411 203.5 411C193.835 411 186 418.835 186 428.5C186 438.165 193.835 446 203.5 446C213.165 446 221 438.165 221 428.5Z" fill="white"/>
<path d="M570.5 411H253.5C243.835 411 236 418.835 236 428.5C236 438.165 243.835 446 253.5 446H570.5C580.165 446 588 438.165 588 428.5C588 418.835 580.165 411 570.5 411Z" fill="white"/>
<path d="M221 500.5C221 490.835 213.165 483 203.5 483C193.835 483 186 490.835 186 500.5C186 510.165 193.835 518 203.5 518C213.165 518 221 510.165 221 500.5Z" fill="white"/>
<path d="M570.5 483H253.5C243.835 483 236 490.835 236 500.5C236 510.165 243.835 518 253.5 518H570.5C580.165 518 588 510.165 588 500.5C588 490.835 580.165 483 570.5 483Z" fill="white"/>
<path d="M221 572.5C221 562.835 213.165 555 203.5 555C193.835 555 186 562.835 186 572.5C186 582.165 193.835 590 203.5 590C213.165 590 221 582.165 221 572.5Z" fill="white"/>
<path d="M570.5 555H253.5C243.835 555 236 562.835 236 572.5C236 582.165 243.835 590 253.5 590H570.5C580.165 590 588 582.165 588 572.5C588 562.835 580.165 555 570.5 555Z" fill="white"/>
<path d="M221 644.5C221 634.835 213.165 627 203.5 627C193.835 627 186 634.835 186 644.5C186 654.165 193.835 662 203.5 662C213.165 662 221 654.165 221 644.5Z" fill="white"/>
<path d="M570.5 627H253.5C243.835 627 236 634.835 236 644.5C236 654.165 243.835 662 253.5 662H570.5C580.165 662 588 654.165 588 644.5C588 634.835 580.165 627 570.5 627Z" fill="white"/>
<path d="M221 716.5C221 706.835 213.165 699 203.5 699C193.835 699 186 706.835 186 716.5C186 726.165 193.835 734 203.5 734C213.165 734 221 726.165 221 716.5Z" fill="white"/>
<path d="M570.5 699H253.5C243.835 699 236 706.835 236 716.5C236 726.165 243.835 734 253.5 734H570.5C580.165 734 588 726.165 588 716.5C588 706.835 580.165 699 570.5 699Z" fill="white"/>
<path d="M221 788.5C221 778.835 213.165 771 203.5 771C193.835 771 186 778.835 186 788.5C186 798.165 193.835 806 203.5 806C213.165 806 221 798.165 221 788.5Z" fill="white"/>
<path d="M570.5 771H253.5C243.835 771 236 778.835 236 788.5C236 798.165 243.835 806 253.5 806H570.5C580.165 806 588 798.165 588 788.5C588 778.835 580.165 771 570.5 771Z" fill="white"/>
<path d="M221 860.5C221 850.835 213.165 843 203.5 843C193.835 843 186 850.835 186 860.5C186 870.165 193.835 878 203.5 878C213.165 878 221 870.165 221 860.5Z" fill="white"/>
<path d="M570.5 843H253.5C243.835 843 236 850.835 236 860.5C236 870.165 243.835 878 253.5 878H570.5C580.165 878 588 870.165 588 860.5C588 850.835 580.165 843 570.5 843Z" fill="white"/>
<path d="M221 932.5C221 922.835 213.165 915 203.5 915C193.835 915 186 922.835 186 932.5C186 942.165 193.835 950 203.5 950C213.165 950 221 942.165 221 932.5Z" fill="white"/>
<path d="M570.5 915H253.5C243.835 915 236 922.835 236 932.5C236 942.165 243.835 950 253.5 950H570.5C580.165 950 588 942.165 588 932.5C588 922.835 580.165 915 570.5 915Z" fill="white"/>
<path d="M221 1004.5C221 994.835 213.165 987 203.5 987C193.835 987 186 994.835 186 1004.5C186 1014.16 193.835 1022 203.5 1022C213.165 1022 221 1014.16 221 1004.5Z" fill="white"/>
<path d="M570.5 987H253.5C243.835 987 236 994.835 236 1004.5C236 1014.16 243.835 1022 253.5 1022H570.5C580.165 1022 588 1014.16 588 1004.5C588 994.835 580.165 987 570.5 987Z" fill="white"/>
<path d="M221 1076.5C221 1066.84 213.165 1059 203.5 1059C193.835 1059 186 1066.84 186 1076.5C186 1086.16 193.835 1094 203.5 1094C213.165 1094 221 1086.16 221 1076.5Z" fill="white"/>
<path d="M570.5 1059H253.5C243.835 1059 236 1066.84 236 1076.5C236 1086.16 243.835 1094 253.5 1094H570.5C580.165 1094 588 1086.16 588 1076.5C588 1066.84 580.165 1059 570.5 1059Z" fill="white"/>
<path d="M221 1148.5C221 1138.84 213.165 1131 203.5 1131C193.835 1131 186 1138.84 186 1148.5C186 1158.16 193.835 1166 203.5 1166C213.165 1166 221 1158.16 221 1148.5Z" fill="white"/>
<path d="M570.5 1131H253.5C243.835 1131 236 1138.84 236 1148.5C236 1158.16 243.835 1166 253.5 1166H570.5C580.165 1166 588 1158.16 588 1148.5C588 1138.84 580.165 1131 570.5 1131Z" fill="white"/>
<path d="M190 228C196.075 228 201 223.075 201 217C201 210.925 196.075 206 190 206C183.925 206 179 210.925 179 217C179 223.075 183.925 228 190 228Z" fill="#F8452D"/>
<path d="M221 228C227.075 228 232 223.075 232 217C232 210.925 227.075 206 221 206C214.925 206 210 210.925 210 217C210 223.075 214.925 228 221 228Z" fill="#FAB518"/>
<path d="M252 228C258.075 228 263 223.075 263 217C263 210.925 258.075 206 252 206C245.925 206 241 210.925 241 217C241 223.075 245.925 228 252 228Z" fill="#55DA41"/>
<path d="M676 315H674.42L673.86 314.46C675.888 312.108 677.002 309.105 677 306C677 303.429 676.238 300.915 674.809 298.778C673.381 296.64 671.35 294.974 668.975 293.99C666.599 293.006 663.986 292.748 661.464 293.25C658.942 293.751 656.626 294.99 654.808 296.808C652.99 298.626 651.751 300.942 651.25 303.464C650.748 305.986 651.006 308.599 651.99 310.975C652.974 313.35 654.64 315.381 656.778 316.809C658.915 318.238 661.429 319 664 319C667.22 319 670.18 317.82 672.46 315.86L673 316.42V318L683 327.98L685.98 325L676 315ZM664 315C659.02 315 655 310.98 655 306C655 301.02 659.02 297 664 297C668.98 297 673 301.02 673 306C673 310.98 668.98 315 664 315Z" fill="#979797"/>
<path d="M760.604 314.42H749.66L747.644 320H744.188L753.26 295.052H757.04L766.076 320H762.62L760.604 314.42ZM759.668 311.756L755.132 299.084L750.596 311.756H759.668ZM779.642 299.912C782.042 299.912 783.986 300.644 785.474 302.108C786.962 303.548 787.706 305.636 787.706 308.372V320H784.466V308.84C784.466 306.872 783.974 305.372 782.99 304.34C782.006 303.284 780.662 302.756 778.958 302.756C777.23 302.756 775.85 303.296 774.818 304.376C773.81 305.456 773.306 307.028 773.306 309.092V320H770.03V300.272H773.306V303.08C773.954 302.072 774.83 301.292 775.934 300.74C777.062 300.188 778.298 299.912 779.642 299.912ZM810.049 300.272L798.169 329.288H794.785L798.673 319.784L790.717 300.272H794.353L800.545 316.256L806.665 300.272H810.049ZM824.632 297.068C824.008 297.068 823.48 296.852 823.048 296.42C822.616 295.988 822.4 295.46 822.4 294.836C822.4 294.212 822.616 293.684 823.048 293.252C823.48 292.82 824.008 292.604 824.632 292.604C825.232 292.604 825.736 292.82 826.144 293.252C826.576 293.684 826.792 294.212 826.792 294.836C826.792 295.46 826.576 295.988 826.144 296.42C825.736 296.852 825.232 297.068 824.632 297.068ZM826.216 300.272V320H822.94V300.272H826.216ZM841.411 299.912C843.811 299.912 845.755 300.644 847.243 302.108C848.731 303.548 849.475 305.636 849.475 308.372V320H846.235V308.84C846.235 306.872 845.743 305.372 844.759 304.34C843.775 303.284 842.431 302.756 840.727 302.756C838.999 302.756 837.619 303.296 836.587 304.376C835.579 305.456 835.075 307.028 835.075 309.092V320H831.799V300.272H835.075V303.08C835.723 302.072 836.599 301.292 837.703 300.74C838.831 300.188 840.067 299.912 841.411 299.912ZM862.855 302.972H858.715V320H855.439V302.972H852.883V300.272H855.439V298.868C855.439 296.66 856.003 295.052 857.131 294.044C858.283 293.012 860.119 292.496 862.639 292.496V295.232C861.199 295.232 860.179 295.52 859.579 296.096C859.003 296.648 858.715 297.572 858.715 298.868V300.272H862.855V302.972ZM875.278 320.324C873.43 320.324 871.75 319.904 870.238 319.064C868.75 318.224 867.574 317.036 866.71 315.5C865.87 313.94 865.45 312.14 865.45 310.1C865.45 308.084 865.882 306.308 866.746 304.772C867.634 303.212 868.834 302.024 870.346 301.208C871.858 300.368 873.55 299.948 875.422 299.948C877.294 299.948 878.986 300.368 880.498 301.208C882.01 302.024 883.198 303.2 884.062 304.736C884.95 306.272 885.394 308.06 885.394 310.1C885.394 312.14 884.938 313.94 884.026 315.5C883.138 317.036 881.926 318.224 880.39 319.064C878.854 319.904 877.15 320.324 875.278 320.324ZM875.278 317.444C876.454 317.444 877.558 317.168 878.59 316.616C879.622 316.064 880.45 315.236 881.074 314.132C881.722 313.028 882.046 311.684 882.046 310.1C882.046 308.516 881.734 307.172 881.11 306.068C880.486 304.964 879.67 304.148 878.662 303.62C877.654 303.068 876.562 302.792 875.386 302.792C874.186 302.792 873.082 303.068 872.074 303.62C871.09 304.148 870.298 304.964 869.698 306.068C869.098 307.172 868.798 308.516 868.798 310.1C868.798 311.708 869.086 313.064 869.662 314.168C870.262 315.272 871.054 316.1 872.038 316.652C873.022 317.18 874.102 317.444 875.278 317.444ZM898.075 310.064C898.075 308.048 898.483 306.284 899.299 304.772C900.115 303.236 901.231 302.048 902.647 301.208C904.087 300.368 905.683 299.948 907.435 299.948C909.163 299.948 910.663 300.32 911.935 301.064C913.207 301.808 914.155 302.744 914.779 303.872V300.272H918.091V320H914.779V316.328C914.131 317.48 913.159 318.44 911.863 319.208C910.591 319.952 909.103 320.324 907.399 320.324C905.647 320.324 904.063 319.892 902.647 319.028C901.231 318.164 900.115 316.952 899.299 315.392C898.483 313.832 898.075 312.056 898.075 310.064ZM914.779 310.1C914.779 308.612 914.479 307.316 913.879 306.212C913.279 305.108 912.463 304.268 911.431 303.692C910.423 303.092 909.307 302.792 908.083 302.792C906.859 302.792 905.743 303.08 904.735 303.656C903.727 304.232 902.923 305.072 902.323 306.176C901.723 307.28 901.423 308.576 901.423 310.064C901.423 311.576 901.723 312.896 902.323 314.024C902.923 315.128 903.727 315.98 904.735 316.58C905.743 317.156 906.859 317.444 908.083 317.444C909.307 317.444 910.423 317.156 911.431 316.58C912.463 315.98 913.279 315.128 913.879 314.024C914.479 312.896 914.779 311.588 914.779 310.1ZM926.903 303.944C927.575 302.768 928.559 301.808 929.855 301.064C931.151 300.32 932.627 299.948 934.283 299.948C936.059 299.948 937.655 300.368 939.071 301.208C940.487 302.048 941.603 303.236 942.419 304.772C943.235 306.284 943.643 308.048 943.643 310.064C943.643 312.056 943.235 313.832 942.419 315.392C941.603 316.952 940.475 318.164 939.035 319.028C937.619 319.892 936.035 320.324 934.283 320.324C932.579 320.324 931.079 319.952 929.783 319.208C928.511 318.464 927.551 317.516 926.903 316.364V320H923.627V293.36H926.903V303.944ZM940.295 310.064C940.295 308.576 939.995 307.28 939.395 306.176C938.795 305.072 937.979 304.232 936.947 303.656C935.939 303.08 934.823 302.792 933.599 302.792C932.399 302.792 931.283 303.092 930.251 303.692C929.243 304.268 928.427 305.12 927.803 306.248C927.203 307.352 926.903 308.636 926.903 310.1C926.903 311.588 927.203 312.896 927.803 314.024C928.427 315.128 929.243 315.98 930.251 316.58C931.283 317.156 932.399 317.444 933.599 317.444C934.823 317.444 935.939 317.156 936.947 316.58C937.979 315.98 938.795 315.128 939.395 314.024C939.995 312.896 940.295 311.576 940.295 310.064ZM956.56 320.324C954.712 320.324 953.032 319.904 951.52 319.064C950.032 318.224 948.856 317.036 947.992 315.5C947.152 313.94 946.732 312.14 946.732 310.1C946.732 308.084 947.164 306.308 948.028 304.772C948.916 303.212 950.116 302.024 951.628 301.208C953.14 300.368 954.832 299.948 956.704 299.948C958.576 299.948 960.268 300.368 961.78 301.208C963.292 302.024 964.48 303.2 965.344 304.736C966.232 306.272 966.676 308.06 966.676 310.1C966.676 312.14 966.22 313.94 965.308 315.5C964.42 317.036 963.208 318.224 961.672 319.064C960.136 319.904 958.432 320.324 956.56 320.324ZM956.56 317.444C957.736 317.444 958.84 317.168 959.872 316.616C960.904 316.064 961.732 315.236 962.356 314.132C963.004 313.028 963.328 311.684 963.328 310.1C963.328 308.516 963.016 307.172 962.392 306.068C961.768 304.964 960.952 304.148 959.944 303.62C958.936 303.068 957.844 302.792 956.668 302.792C955.468 302.792 954.364 303.068 953.356 303.62C952.372 304.148 951.58 304.964 950.98 306.068C950.38 307.172 950.08 308.516 950.08 310.1C950.08 311.708 950.368 313.064 950.944 314.168C951.544 315.272 952.336 316.1 953.32 316.652C954.304 317.18 955.384 317.444 956.56 317.444ZM988.479 300.272V320H985.203V317.084C984.579 318.092 983.703 318.884 982.575 319.46C981.471 320.012 980.247 320.288 978.903 320.288C977.367 320.288 975.987 319.976 974.763 319.352C973.539 318.704 972.567 317.744 971.847 316.472C971.151 315.2 970.803 313.652 970.803 311.828V300.272H974.043V311.396C974.043 313.34 974.535 314.84 975.519 315.896C976.503 316.928 977.847 317.444 979.551 317.444C981.303 317.444 982.683 316.904 983.691 315.824C984.699 314.744 985.203 313.172 985.203 311.108V300.272H988.479ZM998.006 302.972V314.6C998.006 315.56 998.21 316.244 998.618 316.652C999.026 317.036 999.734 317.228 1000.74 317.228H1003.15V320H1000.2C998.378 320 997.01 319.58 996.098 318.74C995.186 317.9 994.73 316.52 994.73 314.6V302.972H992.174V300.272H994.73V295.304H998.006V300.272H1003.15V302.972H998.006ZM1026.51 299.912C1028 299.912 1029.35 300.236 1030.55 300.884C1031.75 301.508 1032.68 302.456 1033.35 303.728C1034.05 305 1034.4 306.548 1034.4 308.372V320H1031.16V308.84C1031.16 306.872 1030.67 305.372 1029.68 304.34C1028.7 303.284 1027.35 302.756 1025.65 302.756C1023.92 302.756 1022.54 303.296 1021.51 304.376C1020.5 305.456 1020 307.028 1020 309.092V320H1016.72V293.36H1020V303.08C1020.65 302.072 1021.53 301.292 1022.66 300.74C1023.81 300.188 1025.1 299.912 1026.51 299.912ZM1048.35 320.324C1046.5 320.324 1044.82 319.904 1043.31 319.064C1041.82 318.224 1040.65 317.036 1039.78 315.5C1038.94 313.94 1038.52 312.14 1038.52 310.1C1038.52 308.084 1038.96 306.308 1039.82 304.772C1040.71 303.212 1041.91 302.024 1043.42 301.208C1044.93 300.368 1046.62 299.948 1048.5 299.948C1050.37 299.948 1052.06 300.368 1053.57 301.208C1055.08 302.024 1056.27 303.2 1057.14 304.736C1058.02 306.272 1058.47 308.06 1058.47 310.1C1058.47 312.14 1058.01 313.94 1057.1 315.5C1056.21 317.036 1055 318.224 1053.46 319.064C1051.93 319.904 1050.22 320.324 1048.35 320.324ZM1048.35 317.444C1049.53 317.444 1050.63 317.168 1051.66 316.616C1052.7 316.064 1053.52 315.236 1054.15 314.132C1054.8 313.028 1055.12 311.684 1055.12 310.1C1055.12 308.516 1054.81 307.172 1054.18 306.068C1053.56 304.964 1052.74 304.148 1051.74 303.62C1050.73 303.068 1049.64 302.792 1048.46 302.792C1047.26 302.792 1046.16 303.068 1045.15 303.62C1044.16 304.148 1043.37 304.964 1042.77 306.068C1042.17 307.172 1041.87 308.516 1041.87 310.1C1041.87 311.708 1042.16 313.064 1042.74 314.168C1043.34 315.272 1044.13 316.1 1045.11 316.652C1046.1 317.18 1047.18 317.444 1048.35 317.444ZM1089.06 300.272L1082.9 320H1079.52L1074.76 304.34L1070.01 320H1066.63L1060.44 300.272H1063.78L1068.32 316.832L1073.22 300.272H1076.56L1081.35 316.868L1085.82 300.272H1089.06ZM1105.9 302.972V314.6C1105.9 315.56 1106.1 316.244 1106.51 316.652C1106.92 317.036 1107.63 317.228 1108.64 317.228H1111.05V320H1108.1C1106.27 320 1104.9 319.58 1103.99 318.74C1103.08 317.9 1102.62 316.52 1102.62 314.6V302.972H1100.07V300.272H1102.62V295.304H1105.9V300.272H1111.05V302.972H1105.9ZM1123.62 320.324C1121.77 320.324 1120.09 319.904 1118.58 319.064C1117.09 318.224 1115.92 317.036 1115.05 315.5C1114.21 313.94 1113.79 312.14 1113.79 310.1C1113.79 308.084 1114.23 306.308 1115.09 304.772C1115.98 303.212 1117.18 302.024 1118.69 301.208C1120.2 300.368 1121.89 299.948 1123.77 299.948C1125.64 299.948 1127.33 300.368 1128.84 301.208C1130.35 302.024 1131.54 303.2 1132.41 304.736C1133.29 306.272 1133.74 308.06 1133.74 310.1C1133.74 312.14 1133.28 313.94 1132.37 315.5C1131.48 317.036 1130.27 318.224 1128.73 319.064C1127.2 319.904 1125.49 320.324 1123.62 320.324ZM1123.62 317.444C1124.8 317.444 1125.9 317.168 1126.93 316.616C1127.97 316.064 1128.79 315.236 1129.42 314.132C1130.07 313.028 1130.39 311.684 1130.39 310.1C1130.39 308.516 1130.08 307.172 1129.45 306.068C1128.83 304.964 1128.01 304.148 1127.01 303.62C1126 303.068 1124.91 302.792 1123.73 302.792C1122.53 302.792 1121.43 303.068 1120.42 303.62C1119.43 304.148 1118.64 304.964 1118.04 306.068C1117.44 307.172 1117.14 308.516 1117.14 310.1C1117.14 311.708 1117.43 313.064 1118.01 314.168C1118.61 315.272 1119.4 316.1 1120.38 316.652C1121.37 317.18 1122.45 317.444 1123.62 317.444ZM1150.92 293.36V320H1147.64V293.36H1150.92ZM1165.11 320.324C1163.26 320.324 1161.58 319.904 1160.07 319.064C1158.58 318.224 1157.4 317.036 1156.54 315.5C1155.7 313.94 1155.28 312.14 1155.28 310.1C1155.28 308.084 1155.71 306.308 1156.57 304.772C1157.46 303.212 1158.66 302.024 1160.17 301.208C1161.69 300.368 1163.38 299.948 1165.25 299.948C1167.12 299.948 1168.81 300.368 1170.33 301.208C1171.84 302.024 1173.03 303.2 1173.89 304.736C1174.78 306.272 1175.22 308.06 1175.22 310.1C1175.22 312.14 1174.77 313.94 1173.85 315.5C1172.97 317.036 1171.75 318.224 1170.22 319.064C1168.68 319.904 1166.98 320.324 1165.11 320.324ZM1165.11 317.444C1166.28 317.444 1167.39 317.168 1168.42 316.616C1169.45 316.064 1170.28 315.236 1170.9 314.132C1171.55 313.028 1171.87 311.684 1171.87 310.1C1171.87 308.516 1171.56 307.172 1170.94 306.068C1170.31 304.964 1169.5 304.148 1168.49 303.62C1167.48 303.068 1166.39 302.792 1165.21 302.792C1164.01 302.792 1162.91 303.068 1161.9 303.62C1160.92 304.148 1160.13 304.964 1159.53 306.068C1158.93 307.172 1158.63 308.516 1158.63 310.1C1158.63 311.708 1158.91 313.064 1159.49 314.168C1160.09 315.272 1160.88 316.1 1161.87 316.652C1162.85 317.18 1163.93 317.444 1165.11 317.444ZM1186.51 320.324C1185 320.324 1183.65 320.072 1182.45 319.568C1181.25 319.04 1180.3 318.32 1179.6 317.408C1178.91 316.472 1178.52 315.404 1178.45 314.204H1181.83C1181.93 315.188 1182.39 315.992 1183.2 316.616C1184.04 317.24 1185.13 317.552 1186.48 317.552C1187.73 317.552 1188.71 317.276 1189.43 316.724C1190.15 316.172 1190.51 315.476 1190.51 314.636C1190.51 313.772 1190.13 313.136 1189.36 312.728C1188.59 312.296 1187.4 311.876 1185.79 311.468C1184.33 311.084 1183.13 310.7 1182.19 310.316C1181.28 309.908 1180.49 309.32 1179.82 308.552C1179.17 307.76 1178.85 306.728 1178.85 305.456C1178.85 304.448 1179.15 303.524 1179.75 302.684C1180.35 301.844 1181.2 301.184 1182.3 300.704C1183.41 300.2 1184.67 299.948 1186.08 299.948C1188.27 299.948 1190.03 300.5 1191.37 301.604C1192.72 302.708 1193.44 304.22 1193.53 306.14H1190.26C1190.19 305.108 1189.77 304.28 1189 303.656C1188.25 303.032 1187.25 302.72 1185.97 302.72C1184.8 302.72 1183.86 302.972 1183.17 303.476C1182.47 303.98 1182.12 304.64 1182.12 305.456C1182.12 306.104 1182.33 306.644 1182.73 307.076C1183.17 307.484 1183.69 307.82 1184.32 308.084C1184.97 308.324 1185.85 308.6 1186.98 308.912C1188.4 309.296 1189.55 309.68 1190.44 310.064C1191.33 310.424 1192.08 310.976 1192.71 311.72C1193.35 312.464 1193.69 313.436 1193.71 314.636C1193.71 315.716 1193.41 316.688 1192.81 317.552C1192.21 318.416 1191.36 319.1 1190.26 319.604C1189.18 320.084 1187.93 320.324 1186.51 320.324ZM1216.34 309.38C1216.34 310.004 1216.3 310.664 1216.23 311.36H1200.46C1200.58 313.304 1201.24 314.828 1202.44 315.932C1203.67 317.012 1205.14 317.552 1206.87 317.552C1208.29 317.552 1209.46 317.228 1210.4 316.58C1211.36 315.908 1212.03 315.02 1212.41 313.916H1215.94C1215.41 315.812 1214.36 317.36 1212.77 318.56C1211.19 319.736 1209.22 320.324 1206.87 320.324C1205 320.324 1203.32 319.904 1201.83 319.064C1200.37 318.224 1199.21 317.036 1198.37 315.5C1197.53 313.94 1197.11 312.14 1197.11 310.1C1197.11 308.06 1197.52 306.272 1198.34 304.736C1199.15 303.2 1200.29 302.024 1201.76 301.208C1203.25 300.368 1204.95 299.948 1206.87 299.948C1208.74 299.948 1210.4 300.356 1211.84 301.172C1213.28 301.988 1214.38 303.116 1215.15 304.556C1215.94 305.972 1216.34 307.58 1216.34 309.38ZM1212.95 308.696C1212.95 307.448 1212.68 306.38 1212.13 305.492C1211.57 304.58 1210.82 303.896 1209.86 303.44C1208.92 302.96 1207.88 302.72 1206.73 302.72C1205.07 302.72 1203.65 303.248 1202.48 304.304C1201.33 305.36 1200.67 306.824 1200.5 308.696H1212.95ZM1256.54 300.272L1250.38 320H1247L1242.25 304.34L1237.5 320H1234.11L1227.92 300.272H1231.27L1235.8 316.832L1240.7 300.272H1244.05L1248.84 316.868L1253.3 300.272H1256.54ZM1277.79 309.38C1277.79 310.004 1277.76 310.664 1277.68 311.36H1261.92C1262.04 313.304 1262.7 314.828 1263.9 315.932C1265.12 317.012 1266.6 317.552 1268.32 317.552C1269.74 317.552 1270.92 317.228 1271.85 316.58C1272.81 315.908 1273.48 315.02 1273.87 313.916H1277.4C1276.87 315.812 1275.81 317.36 1274.23 318.56C1272.64 319.736 1270.68 320.324 1268.32 320.324C1266.45 320.324 1264.77 319.904 1263.28 319.064C1261.82 318.224 1260.67 317.036 1259.83 315.5C1258.99 313.94 1258.57 312.14 1258.57 310.1C1258.57 308.06 1258.98 306.272 1259.79 304.736C1260.61 303.2 1261.75 302.024 1263.21 301.208C1264.7 300.368 1266.4 299.948 1268.32 299.948C1270.2 299.948 1271.85 300.356 1273.29 301.172C1274.73 301.988 1275.84 303.116 1276.6 304.556C1277.4 305.972 1277.79 307.58 1277.79 309.38ZM1274.41 308.696C1274.41 307.448 1274.13 306.38 1273.58 305.492C1273.03 304.58 1272.27 303.896 1271.31 303.44C1270.38 302.96 1269.33 302.72 1268.18 302.72C1266.52 302.72 1265.11 303.248 1263.93 304.304C1262.78 305.36 1262.12 306.824 1261.95 308.696H1274.41ZM1283.81 297.068C1283.18 297.068 1282.66 296.852 1282.22 296.42C1281.79 295.988 1281.58 295.46 1281.58 294.836C1281.58 294.212 1281.79 293.684 1282.22 293.252C1282.66 292.82 1283.18 292.604 1283.81 292.604C1284.41 292.604 1284.91 292.82 1285.32 293.252C1285.75 293.684 1285.97 294.212 1285.97 294.836C1285.97 295.46 1285.75 295.988 1285.32 296.42C1284.91 296.852 1284.41 297.068 1283.81 297.068ZM1285.39 300.272V320H1282.12V300.272H1285.39ZM1299.11 299.948C1300.82 299.948 1302.3 300.32 1303.58 301.064C1304.87 301.808 1305.83 302.744 1306.46 303.872V300.272H1309.77V320.432C1309.77 322.232 1309.38 323.828 1308.62 325.22C1307.85 326.636 1306.74 327.74 1305.3 328.532C1303.89 329.324 1302.23 329.72 1300.34 329.72C1297.74 329.72 1295.58 329.108 1293.86 327.884C1292.13 326.66 1291.11 324.992 1290.8 322.88H1294.04C1294.4 324.08 1295.14 325.04 1296.27 325.76C1297.4 326.504 1298.75 326.876 1300.34 326.876C1302.14 326.876 1303.6 326.312 1304.73 325.184C1305.88 324.056 1306.46 322.472 1306.46 320.432V316.292C1305.81 317.444 1304.85 318.404 1303.58 319.172C1302.3 319.94 1300.82 320.324 1299.11 320.324C1297.36 320.324 1295.76 319.892 1294.32 319.028C1292.91 318.164 1291.79 316.952 1290.98 315.392C1290.16 313.832 1289.75 312.056 1289.75 310.064C1289.75 308.048 1290.16 306.284 1290.98 304.772C1291.79 303.236 1292.91 302.048 1294.32 301.208C1295.76 300.368 1297.36 299.948 1299.11 299.948ZM1306.46 310.1C1306.46 308.612 1306.16 307.316 1305.56 306.212C1304.96 305.108 1304.14 304.268 1303.11 303.692C1302.1 303.092 1300.98 302.792 1299.76 302.792C1298.54 302.792 1297.42 303.08 1296.41 303.656C1295.4 304.232 1294.6 305.072 1294 306.176C1293.4 307.28 1293.1 308.576 1293.1 310.064C1293.1 311.576 1293.4 312.896 1294 314.024C1294.6 315.128 1295.4 315.98 1296.41 316.58C1297.42 317.156 1298.54 317.444 1299.76 317.444C1300.98 317.444 1302.1 317.156 1303.11 316.58C1304.14 315.98 1304.96 315.128 1305.56 314.024C1306.16 312.896 1306.46 311.588 1306.46 310.1ZM1325.1 299.912C1326.58 299.912 1327.93 300.236 1329.13 300.884C1330.33 301.508 1331.26 302.456 1331.94 303.728C1332.63 305 1332.98 306.548 1332.98 308.372V320H1329.74V308.84C1329.74 306.872 1329.25 305.372 1328.26 304.34C1327.28 303.284 1325.94 302.756 1324.23 302.756C1322.5 302.756 1321.12 303.296 1320.09 304.376C1319.08 305.456 1318.58 307.028 1318.58 309.092V320H1315.3V293.36H1318.58V303.08C1319.23 302.072 1320.12 301.292 1321.24 300.74C1322.4 300.188 1323.68 299.912 1325.1 299.912ZM1342.33 302.972V314.6C1342.33 315.56 1342.53 316.244 1342.94 316.652C1343.35 317.036 1344.05 317.228 1345.06 317.228H1347.47V320H1344.52C1342.7 320 1341.33 319.58 1340.42 318.74C1339.51 317.9 1339.05 316.52 1339.05 314.6V302.972H1336.49V300.272H1339.05V295.304H1342.33V300.272H1347.47V302.972H1342.33ZM1370.83 299.912C1372.32 299.912 1373.67 300.236 1374.87 300.884C1376.07 301.508 1377 302.456 1377.67 303.728C1378.37 305 1378.72 306.548 1378.72 308.372V320H1375.48V308.84C1375.48 306.872 1374.99 305.372 1374 304.34C1373.02 303.284 1371.67 302.756 1369.97 302.756C1368.24 302.756 1366.86 303.296 1365.83 304.376C1364.82 305.456 1364.32 307.028 1364.32 309.092V320H1361.04V293.36H1364.32V303.08C1364.97 302.072 1365.85 301.292 1366.98 300.74C1368.13 300.188 1369.42 299.912 1370.83 299.912ZM1402.07 309.38C1402.07 310.004 1402.03 310.664 1401.96 311.36H1386.19C1386.31 313.304 1386.97 314.828 1388.17 315.932C1389.4 317.012 1390.87 317.552 1392.6 317.552C1394.02 317.552 1395.19 317.228 1396.13 316.58C1397.09 315.908 1397.76 315.02 1398.14 313.916H1401.67C1401.14 315.812 1400.09 317.36 1398.5 318.56C1396.92 319.736 1394.95 320.324 1392.6 320.324C1390.73 320.324 1389.05 319.904 1387.56 319.064C1386.1 318.224 1384.94 317.036 1384.1 315.5C1383.26 313.94 1382.84 312.14 1382.84 310.1C1382.84 308.06 1383.25 306.272 1384.07 304.736C1384.88 303.2 1386.02 302.024 1387.49 301.208C1388.98 300.368 1390.68 299.948 1392.6 299.948C1394.47 299.948 1396.13 300.356 1397.57 301.172C1399.01 301.988 1400.11 303.116 1400.88 304.556C1401.67 305.972 1402.07 307.58 1402.07 309.38ZM1398.68 308.696C1398.68 307.448 1398.41 306.38 1397.86 305.492C1397.3 304.58 1396.55 303.896 1395.59 303.44C1394.65 302.96 1393.61 302.72 1392.46 302.72C1390.8 302.72 1389.38 303.248 1388.21 304.304C1387.06 305.36 1386.4 306.824 1386.23 308.696H1398.68ZM1405.17 310.064C1405.17 308.048 1405.58 306.284 1406.39 304.772C1407.21 303.236 1408.33 302.048 1409.74 301.208C1411.18 300.368 1412.78 299.948 1414.53 299.948C1416.26 299.948 1417.76 300.32 1419.03 301.064C1420.3 301.808 1421.25 302.744 1421.87 303.872V300.272H1425.19V320H1421.87V316.328C1421.23 317.48 1420.25 318.44 1418.96 319.208C1417.69 319.952 1416.2 320.324 1414.49 320.324C1412.74 320.324 1411.16 319.892 1409.74 319.028C1408.33 318.164 1407.21 316.952 1406.39 315.392C1405.58 313.832 1405.17 312.056 1405.17 310.064ZM1421.87 310.1C1421.87 308.612 1421.57 307.316 1420.97 306.212C1420.37 305.108 1419.56 304.268 1418.53 303.692C1417.52 303.092 1416.4 302.792 1415.18 302.792C1413.95 302.792 1412.84 303.08 1411.83 303.656C1410.82 304.232 1410.02 305.072 1409.42 306.176C1408.82 307.28 1408.52 308.576 1408.52 310.064C1408.52 311.576 1408.82 312.896 1409.42 314.024C1410.02 315.128 1410.82 315.98 1411.83 316.58C1412.84 317.156 1413.95 317.444 1415.18 317.444C1416.4 317.444 1417.52 317.156 1418.53 316.58C1419.56 315.98 1420.37 315.128 1420.97 314.024C1421.57 312.896 1421.87 311.588 1421.87 310.1ZM1434 293.36V320H1430.72V293.36H1434ZM1443.58 302.972V314.6C1443.58 315.56 1443.78 316.244 1444.19 316.652C1444.6 317.036 1445.3 317.228 1446.31 317.228H1448.72V320H1445.77C1443.95 320 1442.58 319.58 1441.67 318.74C1440.76 317.9 1440.3 316.52 1440.3 314.6V302.972H1437.74V300.272H1440.3V295.304H1443.58V300.272H1448.72V302.972H1443.58ZM1462.49 299.912C1463.97 299.912 1465.32 300.236 1466.52 300.884C1467.72 301.508 1468.65 302.456 1469.33 303.728C1470.02 305 1470.37 306.548 1470.37 308.372V320H1467.13V308.84C1467.13 306.872 1466.64 305.372 1465.65 304.34C1464.67 303.284 1463.33 302.756 1461.62 302.756C1459.89 302.756 1458.51 303.296 1457.48 304.376C1456.47 305.456 1455.97 307.028 1455.97 309.092V320H1452.69V293.36H1455.97V303.08C1456.62 302.072 1457.51 301.292 1458.63 300.74C1459.79 300.188 1461.07 299.912 1462.49 299.912ZM1492.71 300.272L1480.83 329.288H1477.45L1481.34 319.784L1473.38 300.272H1477.02L1483.21 316.256L1489.33 300.272H1492.71ZM1502.41 294.584C1504.79 294.584 1506.71 295.256 1508.17 296.6C1509.64 297.944 1510.37 299.744 1510.37 302C1510.37 304.52 1509.59 306.392 1508.03 307.616C1506.47 308.816 1504.36 309.416 1501.69 309.416L1501.59 312.836H1498.74L1498.6 307.148H1499.64C1502.02 307.148 1503.88 306.788 1505.22 306.068C1506.57 305.348 1507.24 303.992 1507.24 302C1507.24 300.56 1506.81 299.42 1505.94 298.58C1505.08 297.74 1503.91 297.32 1502.45 297.32C1500.96 297.32 1499.79 297.728 1498.92 298.544C1498.08 299.336 1497.66 300.428 1497.66 301.82H1494.57C1494.57 300.38 1494.89 299.12 1495.54 298.04C1496.19 296.936 1497.1 296.084 1498.27 295.484C1499.47 294.884 1500.85 294.584 1502.41 294.584ZM1500.15 320.216C1499.52 320.216 1498.99 320 1498.56 319.568C1498.13 319.136 1497.91 318.608 1497.91 317.984C1497.91 317.36 1498.13 316.832 1498.56 316.4C1498.99 315.968 1499.52 315.752 1500.15 315.752C1500.75 315.752 1501.25 315.968 1501.66 316.4C1502.09 316.832 1502.31 317.36 1502.31 317.984C1502.31 318.608 1502.09 319.136 1501.66 319.568C1501.25 320 1500.75 320.216 1500.15 320.216Z" fill="#818181"/>
<rect x="201" y="273" width="57" height="55.1613" rx="27.5806" fill="#358965"/>
<path d="M227.993 312.634C225.347 312.642 222.795 311.656 220.843 309.87C218.891 308.085 217.681 305.63 217.453 302.995C217.226 300.359 217.997 297.733 219.614 295.64C221.232 293.546 223.577 292.137 226.185 291.691C234.773 290.034 237.033 289.25 240.047 285.513C241.554 288.527 243.06 291.812 243.06 297.567C243.06 305.854 235.858 312.634 227.993 312.634Z" stroke="white" stroke-width="4.03495" stroke-linecap="round" stroke-linejoin="round"/>
<path d="M214.433 314.141C214.433 309.621 217.22 306.065 222.087 305.101C225.733 304.378 229.5 302.087 231.007 300.581" stroke="white" stroke-width="4.03495" stroke-linecap="round" stroke-linejoin="round"/>
<path d="M293.984 314L288.008 303.74H284.048V314H280.772V288.908H288.872C290.768 288.908 292.364 289.232 293.66 289.88C294.98 290.528 295.964 291.404 296.612 292.508C297.26 293.612 297.584 294.872 297.584 296.288C297.584 298.016 297.08 299.54 296.072 300.86C295.088 302.18 293.6 303.056 291.608 303.488L297.908 314H293.984ZM284.048 301.112H288.872C290.648 301.112 291.98 300.68 292.868 299.816C293.756 298.928 294.2 297.752 294.2 296.288C294.2 294.8 293.756 293.648 292.868 292.832C292.004 292.016 290.672 291.608 288.872 291.608H284.048V301.112ZM311.278 314.324C309.43 314.324 307.75 313.904 306.238 313.064C304.75 312.224 303.574 311.036 302.71 309.5C301.87 307.94 301.45 306.14 301.45 304.1C301.45 302.084 301.882 300.308 302.746 298.772C303.634 297.212 304.834 296.024 306.346 295.208C307.858 294.368 309.55 293.948 311.422 293.948C313.294 293.948 314.986 294.368 316.498 295.208C318.01 296.024 319.198 297.2 320.062 298.736C320.95 300.272 321.394 302.06 321.394 304.1C321.394 306.14 320.938 307.94 320.026 309.5C319.138 311.036 317.926 312.224 316.39 313.064C314.854 313.904 313.15 314.324 311.278 314.324ZM311.278 311.444C312.454 311.444 313.558 311.168 314.59 310.616C315.622 310.064 316.45 309.236 317.074 308.132C317.722 307.028 318.046 305.684 318.046 304.1C318.046 302.516 317.734 301.172 317.11 300.068C316.486 298.964 315.67 298.148 314.662 297.62C313.654 297.068 312.562 296.792 311.386 296.792C310.186 296.792 309.082 297.068 308.074 297.62C307.09 298.148 306.298 298.964 305.698 300.068C305.098 301.172 304.798 302.516 304.798 304.1C304.798 305.708 305.086 307.064 305.662 308.168C306.262 309.272 307.054 310.1 308.038 310.652C309.022 311.18 310.102 311.444 311.278 311.444ZM334.306 314.324C332.458 314.324 330.778 313.904 329.266 313.064C327.778 312.224 326.602 311.036 325.738 309.5C324.898 307.94 324.478 306.14 324.478 304.1C324.478 302.084 324.91 300.308 325.774 298.772C326.662 297.212 327.862 296.024 329.374 295.208C330.886 294.368 332.578 293.948 334.45 293.948C336.322 293.948 338.014 294.368 339.526 295.208C341.038 296.024 342.226 297.2 343.09 298.736C343.978 300.272 344.422 302.06 344.422 304.1C344.422 306.14 343.966 307.94 343.054 309.5C342.166 311.036 340.954 312.224 339.418 313.064C337.882 313.904 336.178 314.324 334.306 314.324ZM334.306 311.444C335.482 311.444 336.586 311.168 337.618 310.616C338.65 310.064 339.478 309.236 340.102 308.132C340.75 307.028 341.074 305.684 341.074 304.1C341.074 302.516 340.762 301.172 340.138 300.068C339.514 298.964 338.698 298.148 337.69 297.62C336.682 297.068 335.59 296.792 334.414 296.792C333.214 296.792 332.11 297.068 331.102 297.62C330.118 298.148 329.326 298.964 328.726 300.068C328.126 301.172 327.826 302.516 327.826 304.1C327.826 305.708 328.114 307.064 328.69 308.168C329.29 309.272 330.082 310.1 331.066 310.652C332.05 311.18 333.13 311.444 334.306 311.444ZM352.725 296.972V308.6C352.725 309.56 352.929 310.244 353.337 310.652C353.745 311.036 354.453 311.228 355.461 311.228H357.873V314H354.921C353.097 314 351.729 313.58 350.817 312.74C349.905 311.9 349.449 310.52 349.449 308.6V296.972H346.893V294.272H349.449V289.304H352.725V294.272H357.873V296.972H352.725ZM388.122 294.272L381.966 314H378.582L373.83 298.34L369.078 314H365.694L359.502 294.272H362.85L367.386 310.832L372.282 294.272H375.63L380.418 310.868L384.882 294.272H388.122ZM393.066 291.068C392.442 291.068 391.914 290.852 391.482 290.42C391.05 289.988 390.834 289.46 390.834 288.836C390.834 288.212 391.05 287.684 391.482 287.252C391.914 286.82 392.442 286.604 393.066 286.604C393.666 286.604 394.17 286.82 394.578 287.252C395.01 287.684 395.226 288.212 395.226 288.836C395.226 289.46 395.01 289.988 394.578 290.42C394.17 290.852 393.666 291.068 393.066 291.068ZM394.65 294.272V314H391.374V294.272H394.65ZM407.217 314.324C405.705 314.324 404.349 314.072 403.149 313.568C401.949 313.04 401.001 312.32 400.305 311.408C399.609 310.472 399.225 309.404 399.153 308.204H402.537C402.633 309.188 403.089 309.992 403.905 310.616C404.745 311.24 405.837 311.552 407.181 311.552C408.429 311.552 409.413 311.276 410.133 310.724C410.853 310.172 411.213 309.476 411.213 308.636C411.213 307.772 410.829 307.136 410.061 306.728C409.293 306.296 408.105 305.876 406.497 305.468C405.033 305.084 403.833 304.7 402.897 304.316C401.985 303.908 401.193 303.32 400.521 302.552C399.873 301.76 399.549 300.728 399.549 299.456C399.549 298.448 399.849 297.524 400.449 296.684C401.049 295.844 401.901 295.184 403.005 294.704C404.109 294.2 405.369 293.948 406.785 293.948C408.969 293.948 410.733 294.5 412.077 295.604C413.421 296.708 414.141 298.22 414.237 300.14H410.961C410.889 299.108 410.469 298.28 409.701 297.656C408.957 297.032 407.949 296.72 406.677 296.72C405.501 296.72 404.565 296.972 403.869 297.476C403.173 297.98 402.825 298.64 402.825 299.456C402.825 300.104 403.029 300.644 403.437 301.076C403.869 301.484 404.397 301.82 405.021 302.084C405.669 302.324 406.557 302.6 407.685 302.912C409.101 303.296 410.253 303.68 411.141 304.064C412.029 304.424 412.785 304.976 413.409 305.72C414.057 306.464 414.393 307.436 414.417 308.636C414.417 309.716 414.117 310.688 413.517 311.552C412.917 312.416 412.065 313.1 410.961 313.604C409.881 314.084 408.633 314.324 407.217 314.324ZM437.042 303.38C437.042 304.004 437.006 304.664 436.934 305.36H421.166C421.286 307.304 421.946 308.828 423.146 309.932C424.37 311.012 425.846 311.552 427.574 311.552C428.99 311.552 430.166 311.228 431.102 310.58C432.062 309.908 432.734 309.02 433.118 307.916H436.646C436.118 309.812 435.062 311.36 433.478 312.56C431.894 313.736 429.926 314.324 427.574 314.324C425.702 314.324 424.022 313.904 422.534 313.064C421.07 312.224 419.918 311.036 419.078 309.5C418.238 307.94 417.818 306.14 417.818 304.1C417.818 302.06 418.226 300.272 419.042 298.736C419.858 297.2 420.998 296.024 422.462 295.208C423.95 294.368 425.654 293.948 427.574 293.948C429.446 293.948 431.102 294.356 432.542 295.172C433.982 295.988 435.086 297.116 435.854 298.556C436.646 299.972 437.042 301.58 437.042 303.38ZM433.658 302.696C433.658 301.448 433.382 300.38 432.83 299.492C432.278 298.58 431.522 297.896 430.562 297.44C429.626 296.96 428.582 296.72 427.43 296.72C425.774 296.72 424.358 297.248 423.182 298.304C422.03 299.36 421.37 300.824 421.202 302.696H433.658Z" fill="#358965"/>
<defs>
<filter id="filter0_f_8988_7029" x="194" y="50" width="944" height="945" filterUnits="userSpaceOnUse" color-interpolation-filters="sRGB">
<feFlood flood-opacity="0" result="BackgroundImageFix"/>
<feBlend mode="normal" in="SourceGraphic" in2="BackgroundImageFix" result="shape"/>
<feGaussianBlur stdDeviation="150" result="effect1_foregroundBlur_8988_7029"/>
</filter>
<filter id="filter1_f_8988_7029" x="0" y="399" width="944" height="945" filterUnits="userSpaceOnUse" color-interpolation-filters="sRGB">
<feFlood flood-opacity="0" result="BackgroundImageFix"/>
<feBlend mode="normal" in="SourceGraphic" in2="BackgroundImageFix" result="shape"/>
<feGaussianBlur stdDeviation="150" result="effect1_foregroundBlur_8988_7029"/>
</filter>
<filter id="filter2_f_8988_7029" x="831" y="0" width="944" height="945" filterUnits="userSpaceOnUse" color-interpolation-filters="sRGB">
<feFlood flood-opacity="0" result="BackgroundImageFix"/>
<feBlend mode="normal" in="SourceGraphic" in2="BackgroundImageFix" result="shape"/>
<feGaussianBlur stdDeviation="150" result="effect1_foregroundBlur_8988_7029"/>
</filter>
</defs>
</svg>
